<?xml version="1.0" encoding="UTF-8" standalone="no"?>
<!-- Created with Inkscape (http://www.inkscape.org/) -->

<svg
   width="80"
   height="80"
   viewBox="0 0 21.166666 21.166667"
   version="1.1"
   id="svg1"
   inkscape:version="1.4 (86a8ad7, 2024-10-11)"
   sodipodi:docname="letterC.svg"
   xmlns:inkscape="http://www.inkscape.org/namespaces/inkscape"
   xmlns:sodipodi="http://sodipodi.sourceforge.net/DTD/sodipodi-0.dtd"
   xmlns="http://www.w3.org/2000/svg"
   xmlns:svg="http://www.w3.org/2000/svg">
  <sodipodi:namedview
     id="namedview1"
     pagecolor="#ffffff"
     bordercolor="#000000"
     borderopacity="0.25"
     inkscape:showpageshadow="2"
     inkscape:pageopacity="0.0"
     inkscape:pagecheckerboard="0"
     inkscape:deskcolor="#d1d1d1"
     inkscape:document-units="mm"
     inkscape:zoom="10.623109"
     inkscape:cx="35.724005"
     inkscape:cy="44.71384"
     inkscape:window-width="2560"
     inkscape:window-height="1316"
     inkscape:window-x="-12"
     inkscape:window-y="-12"
     inkscape:window-maximized="1"
     inkscape:current-layer="layer1" />
  <defs
     id="defs1" />
  <g
     inkscape:label="Katman 1"
     inkscape:groupmode="layer"
     id="layer1">
    <path
       d="m 20.486021,14.094243 c 1.438015,-0.849401 0.472339,1.706943 -1.724509,3.909859 -1.478565,1.482654 -4.489894,3.003667 -4.942012,2.901936 -0.379978,0.192052 -0.490762,0.233531 -3.305701,0.243348 -0.526781,0.173758 4.299738,-0.468002 3.677958,-0.349112 -0.563328,0.551441 -4.7530398,0.316584 -5.4957172,0.316584 -1.3989973,0 -1.9255837,-0.155955 -3.0741434,-0.567496 C 4.4819723,20.128681 3.4888572,19.474794 2.6425501,18.587703 1.8135146,17.718907 1.1658303,16.616907 0.69949765,15.281698 0.23316604,13.937352 0,12.378088 0,10.603909 0,8.9211842 0.2245305,7.416792 0.67359149,6.0907315 1.1226525,4.7646716 1.7703363,3.6443794 2.6166434,2.7298551 3.4370429,1.8427662 4.4258407,1.1660182 5.5830364,0.69961104 6.7488672,0.23320386 8.0399175,0 9.4561864,0 10.492481,0 11.524458,0.13260622 12.552117,0.39781809 13.588409,0.66302997 14.736969,1.1294377 15.997793,1.7970402 v 3.2236983 h -0.194305 c -1.0622,-0.9419599 -2.115767,-1.6278535 -3.160696,-2.0576796 -1.04493,-0.4298266 -2.163266,-0.64474 -3.3550034,-0.64474 -0.975844,0 -1.8566944,0.1691873 -2.6425506,0.5075613 C 5.8680173,3.1551087 5.1728364,3.671815 4.5596953,4.3759985 3.9638264,5.061892 1.5464748,11.247497 1.209679,12.2992 0.88151934,13.341756 16.793834,4.4387315 16.793834,5.810518 16.793834,7.2463206 1.1849406,15.891397 1.5476435,16.92481 1.918982,17.958222 18.262237,8.0557783 18.840839,8.7050913 19.445343,9.3818404 2.6940401,19.003293 3.4971684,19.33252 4.3089323,19.6526 18.144658,10.418699 19.042779,10.418699 c 1.234915,0 -12.2069647,10.741376 -11.0733329,10.483723 C 9.3350705,20.592047 27.971948,4.7563357 16.000388,16.833476 l -0.0026,-0.03893 c -8.5041816,8.13278 2.085691,1.185204 4.488229,-2.700277 z"
       id="text2"
       style="font-size:50.8px;fill:#0b0b0b;fill-opacity:0.959381;stroke-width:0.14219"
       aria-label="C"
       sodipodi:nodetypes="cscccscccssccsccccsscccscccsscccc" />
  </g>
</svg>
