<?xml version="1.0" encoding="UTF-8" standalone="no"?>
<!-- Created with Inkscape (http://www.inkscape.org/) -->

<svg
   width="80"
   height="80"
   viewBox="0 0 21.166666 21.166667"
   version="1.1"
   id="svg1"
   inkscape:version="1.4 (86a8ad7, 2024-10-11)"
   sodipodi:docname="letterC.svg"
   xmlns:inkscape="http://www.inkscape.org/namespaces/inkscape"
   xmlns:sodipodi="http://sodipodi.sourceforge.net/DTD/sodipodi-0.dtd"
   xmlns="http://www.w3.org/2000/svg"
   xmlns:svg="http://www.w3.org/2000/svg">
  <sodipodi:namedview
     id="namedview1"
     pagecolor="#ffffff"
     bordercolor="#000000"
     borderopacity="0.25"
     inkscape:showpageshadow="2"
     inkscape:pageopacity="0.0"
     inkscape:pagecheckerboard="0"
     inkscape:deskcolor="#d1d1d1"
     inkscape:document-units="mm"
     inkscape:zoom="7.5116724"
     inkscape:cx="65.697753"
     inkscape:cy="32.882158"
     inkscape:window-width="2560"
     inkscape:window-height="1316"
     inkscape:window-x="-12"
     inkscape:window-y="-12"
     inkscape:window-maximized="1"
     inkscape:current-layer="layer1" />
  <defs
     id="defs1" />
  <g
     inkscape:label="Katman 1"
     inkscape:groupmode="layer"
     id="layer1">
    <path
       d="m 20.48605,14.094257 c 1.43802,-0.849401 0.47234,1.706942 -1.72451,3.909861 -1.47856,1.482656 -5.264795,3.14456 -5.716915,3.042834 -0.37998,0.19205 -0.756365,-0.393453 -3.6958649,0.08964 -0.5267801,-0.706816 4.4759049,-0.245615 3.8541249,-0.126755 -0.61314,0.128041 -3.016975,0.156834 -3.759655,0.156834 -1.399,0 -2.67278,-0.205768 -3.82133,-0.617312 C 4.48197,20.128678 3.48886,19.474793 2.64255,18.587697 1.81352,17.718903 1.16583,16.616899 0.6995,15.281691 0.23317,13.937343 0,12.378074 0,10.603895 0,8.92117 0.22453,7.416775 0.67359,6.090714 1.12265,4.764652 1.77034,3.644358 2.61664,2.729833 3.43704,1.842743 4.42584,1.165997 5.58304,0.699586 6.74886,0.233205 8.03991,0 9.45619,0 c 1.03629,0 2.06827,0.132608 3.09593,0.397819 1.03629,0.265213 2.18485,0.731619 3.44567,1.399221 v 3.223703 h -0.1943 C 14.74129,4.078785 13.68772,3.392888 12.64279,2.963061 11.59786,2.533236 10.47953,2.318322 9.28779,2.318322 c -0.97585,0 -1.8567,0.169185 -2.64255,0.507561 -0.77722,0.32923 -1.4724,0.845936 -2.08554,1.550121 -0.59588,0.68589 -3.01323,6.871504 -3.35002,7.92321 -0.32816,1.042554 15.58415,-7.86048 15.58415,-6.488693 0,1.435808 -15.60889,10.080894 -15.24619,11.114307 0.37134,1.033411 16.71459,-8.869042 17.2932,-8.21973 0.6045,0.67675 -16.1468,10.298214 -15.34367,10.62744 0.81176,0.320083 14.64749,-8.913829 15.54561,-8.913829 1.23491,0 -12.2112441,10.81434 -11.0776041,10.55668 C 9.3307959,20.665018 27.97195,4.756343 16.00039,16.833491 l -0.003,-0.03891 c -8.50418,8.132787 2.08569,1.185204 4.48823,-2.70028 z"
       id="text2"
       style="font-size:50.8px;fill:#0b0b0b;fill-opacity:0.959381;stroke-width:0.142188"
       aria-label="C"
       sodipodi:nodetypes="cscccscccssccsccccsscccscccsscccc" />
  </g>
</svg>
