<?xml version="1.0" encoding="UTF-8" standalone="no"?>
<!-- Created with Inkscape (http://www.inkscape.org/) -->

<svg
   width="80"
   height="80"
   viewBox="0 0 21.166666 21.166667"
   version="1.1"
   id="svg1"
   sodipodi:docname="letterD.svg"
   inkscape:version="1.4 (86a8ad7, 2024-10-11)"
   xmlns:inkscape="http://www.inkscape.org/namespaces/inkscape"
   xmlns:sodipodi="http://sodipodi.sourceforge.net/DTD/sodipodi-0.dtd"
   xmlns="http://www.w3.org/2000/svg"
   xmlns:svg="http://www.w3.org/2000/svg">
  <sodipodi:namedview
     id="namedview1"
     pagecolor="#ffffff"
     bordercolor="#000000"
     borderopacity="0.25"
     inkscape:showpageshadow="2"
     inkscape:pageopacity="0.0"
     inkscape:pagecheckerboard="0"
     inkscape:deskcolor="#d1d1d1"
     inkscape:document-units="mm"
     inkscape:zoom="1.8779181"
     inkscape:cx="329.35409"
     inkscape:cy="167.73894"
     inkscape:window-width="2560"
     inkscape:window-height="1316"
     inkscape:window-x="-12"
     inkscape:window-y="-12"
     inkscape:window-maximized="1"
     inkscape:current-layer="layer1" />
  <defs
     id="defs1" />
  <g
     inkscape:label="Katman 1"
     inkscape:groupmode="layer"
     id="layer1">
    <path
       d="m 21.16667,10.604648 c 0,1.923823 -0.49916,3.66758 -1.49749,5.231268 -0.9871,1.563671 -2.30511,2.776717 -3.95402,3.639121 -1.14415,0.597043 -2.4229,1.02825 -3.83625,1.293601 -1.40214,0.265345 11.04764,-11.089698 9.06982,-10.09868 L 0,21.166667 V 0 l 20.88143,10.819686 c 2.08453,1.080092 -10.2364,-10.668048 -8.80061,-10.364788 1.447,0.293783 2.66966,0.701273 3.66799,1.222502 1.705,0.900324 3.03422,2.099146 3.98768,3.596503 0.95345,1.497345 1.43018,3.274271 1.43018,5.330745 z m -3.48291,-0.04265 c 0,-1.658466 -0.34212,-3.056302 -1.02637,-4.193529 C 15.97314,5.231226 14.95239,4.335659 13.59512,3.681752 12.60802,3.207926 11.55922,2.880964 10.44873,2.700905 9.33823,2.511352 8.00901,2.416599 6.46105,2.416599 H 3.33148 v 16.333433 h 3.12957 c 1.60404,0 3.00057,-0.0995 4.18959,-0.298518 1.20023,-0.19902 2.2995,-0.568611 3.29782,-1.108795 1.2451,-0.672851 2.17612,-1.558952 2.79306,-2.658264 0.62816,-1.099327 0.94224,-2.473473 0.94224,-4.122457 z"
       id="text28"
       style="font-size:50.8px;fill:#0b0b0b;fill-opacity:0.959381;stroke-width:0.164965"
       aria-label="&#10;D"
       sodipodi:nodetypes="scccsccsccssssccsccscccs" />
  </g>
</svg>
