<?xml version="1.0" encoding="UTF-8" standalone="no"?>
<!-- Created with Inkscape (http://www.inkscape.org/) -->

<svg
   width="80"
   height="80"
   viewBox="0 0 21.166666 21.166667"
   version="1.1"
   id="svg1"
   sodipodi:docname="letterU.svg"
   inkscape:version="1.4 (86a8ad7, 2024-10-11)"
   xmlns:inkscape="http://www.inkscape.org/namespaces/inkscape"
   xmlns:sodipodi="http://sodipodi.sourceforge.net/DTD/sodipodi-0.dtd"
   xmlns="http://www.w3.org/2000/svg"
   xmlns:svg="http://www.w3.org/2000/svg">
  <sodipodi:namedview
     id="namedview1"
     pagecolor="#ffffff"
     bordercolor="#000000"
     borderopacity="0.25"
     inkscape:showpageshadow="2"
     inkscape:pageopacity="0.0"
     inkscape:pagecheckerboard="0"
     inkscape:deskcolor="#d1d1d1"
     inkscape:document-units="mm"
     inkscape:zoom="1.8779181"
     inkscape:cx="515.19819"
     inkscape:cy="185.8441"
     inkscape:window-width="2560"
     inkscape:window-height="1316"
     inkscape:window-x="-12"
     inkscape:window-y="-12"
     inkscape:window-maximized="1"
     inkscape:current-layer="layer1"
     showgrid="false" />
  <defs
     id="defs1" />
  <g
     inkscape:label="Katman 1"
     inkscape:groupmode="layer"
     id="layer1">
    <path
       d="m 17.63526,11.370911 c 0,1.378292 -0.1378,2.582172 -0.4134,3.611637 -0.26795,1.020959 -0.71197,1.871753 -1.33207,2.552393 -0.58948,0.646606 -1.27848,1.118799 -2.06701,1.416579 -0.78851,0.297774 -1.70719,0.446667 -2.756,0.446667 -1.07177,0 -2.00575,-0.157394 -2.80193,-0.472194 C 7.46867,18.6112 6.79881,18.147514 6.25527,17.534941 5.63516,16.837287 5.18731,15.994995 4.91172,15.008069 4.64377,14.021143 4.50979,12.808759 4.50979,11.370911 V 0 L 0,21.166667 6.7835,11.498531 c 0.56961,-0.811831 0.0612,1.841978 0.18373,2.437537 0.13015,0.59556 0.34451,1.135814 0.64307,1.620767 0.33684,0.55302 0.79235,0.969912 1.36652,1.250673 0.58182,0.280761 1.27847,0.421141 2.08996,0.421141 0.81915,0 1.51581,-0.136127 2.08997,-0.408376 0.57418,-0.280765 1.03351,-0.701911 1.378,-1.263438 0.29858,-0.484953 0.5091,-1.037973 0.63159,-1.659058 0.13015,-0.629587 0.19522,-1.408067 0.19522,-2.335437 L 21.16667,20.804228 17.63526,0 Z"
       id="text46-8"
       style="font-size:50.8px;fill:#0b0b0b;fill-opacity:0.959381;stroke-width:0.129128"
       aria-label="U"
       sodipodi:nodetypes="sccsssccsccscccscccsccs" />
  </g>
</svg>
