<?xml version="1.0" encoding="UTF-8" standalone="no"?>
<!-- Created with Inkscape (http://www.inkscape.org/) -->

<svg
   width="80"
   height="80"
   viewBox="0 0 21.166666 21.166667"
   version="1.1"
   id="svg1"
   inkscape:version="1.4 (86a8ad7, 2024-10-11)"
   sodipodi:docname="letterO.svg"
   xmlns:inkscape="http://www.inkscape.org/namespaces/inkscape"
   xmlns:sodipodi="http://sodipodi.sourceforge.net/DTD/sodipodi-0.dtd"
   xmlns="http://www.w3.org/2000/svg"
   xmlns:svg="http://www.w3.org/2000/svg">
  <sodipodi:namedview
     id="namedview1"
     pagecolor="#ffffff"
     bordercolor="#000000"
     borderopacity="0.25"
     inkscape:showpageshadow="2"
     inkscape:pageopacity="0.0"
     inkscape:pagecheckerboard="0"
     inkscape:deskcolor="#d1d1d1"
     inkscape:document-units="mm"
     inkscape:zoom="0.93895903"
     inkscape:cx="396.71592"
     inkscape:cy="561.25985"
     inkscape:window-width="2560"
     inkscape:window-height="1316"
     inkscape:window-x="-12"
     inkscape:window-y="-12"
     inkscape:window-maximized="1"
     inkscape:current-layer="layer1" />
  <defs
     id="defs1" />
  <g
     inkscape:label="Katman 1"
     inkscape:groupmode="layer"
     id="layer1">
    <path
       d="m 18.28934,2.756719 c 0.9285,0.909809 1.63763,2.024315 2.12739,3.34354 0.49996,1.319225 0.74994,2.815855 0.74994,4.489902 0,1.674044 -0.25508,3.175229 -0.76524,4.503549 -0.49997,1.319219 -1.20399,2.420087 -2.11209,3.302597 -0.93869,0.918906 -2.05085,1.610358 -3.33646,2.074357 -1.2754,0.464002 -2.73448,0.696003 -4.3772,0.696003 -1.60191,0 -3.06098,-0.236547 -4.3772,-0.709647 C 4.89246,19.983928 3.78031,19.297015 2.86202,18.396307 1.94373,17.495596 1.2346,16.390178 0.73464,15.08006 0.24488,13.769932 0,12.273303 0,10.590161 0,8.934312 0.24488,7.451325 0.73464,6.141198 1.2244,4.821975 1.93862,3.693817 2.87732,2.756719 3.77521,1.865106 4.88737,1.182747 6.21379,0.709652 7.55042,0.236548 9.00438,0 10.57568,0 c 1.63252,0 3.0967,0.241102 4.39251,0.723298 1.30602,0.473103 2.41307,1.150909 3.32115,2.033421 z m -0.27548,7.833442 c 0,-2.638444 -6.05302,1.374404 -7.37945,-0.05395 -1.32643,-1.437499 2.25231,-8.202515 -0.0434,-8.202515 -2.31614,0 1.42625,6.920052 0.0998,8.357548 C 9.37459,12.119639 3.1528,7.951762 3.1528,10.590202 c 0,2.665734 6.06323,-1.027952 7.41006,0.391348 1.34683,1.410202 -2.23701,7.851508 0.0282,7.851508 2.26512,0 -1.67155,-7.061442 -0.33493,-8.471635 1.34683,-1.419305 7.7578,2.894513 7.7578,0.228779 z"
       id="text18"
       style="font-size:50.8px;fill:#0b0b0b;fill-opacity:0.959381;stroke-width:0.154158"
       aria-label="O"
       sodipodi:nodetypes="ccscccscscscccsccscscscscss" />
  </g>
</svg>
