<?xml version="1.0" encoding="UTF-8" standalone="no"?>
<!-- Created with Inkscape (http://www.inkscape.org/) -->

<svg
   width="210mm"
   height="297mm"
   viewBox="0 0 210 297"
   version="1.1"
   id="svg1"
   inkscape:version="1.4 (86a8ad7, 2024-10-11)"
   sodipodi:docname="letterO.svg"
   xmlns:inkscape="http://www.inkscape.org/namespaces/inkscape"
   xmlns:sodipodi="http://sodipodi.sourceforge.net/DTD/sodipodi-0.dtd"
   xmlns="http://www.w3.org/2000/svg"
   xmlns:svg="http://www.w3.org/2000/svg">
  <sodipodi:namedview
     id="namedview1"
     pagecolor="#ffffff"
     bordercolor="#000000"
     borderopacity="0.25"
     inkscape:showpageshadow="2"
     inkscape:pageopacity="0.0"
     inkscape:pagecheckerboard="0"
     inkscape:deskcolor="#d1d1d1"
     inkscape:document-units="mm"
     inkscape:zoom="0.93895903"
     inkscape:cx="399.91095"
     inkscape:cy="602.7952"
     inkscape:window-width="2560"
     inkscape:window-height="1316"
     inkscape:window-x="-12"
     inkscape:window-y="-12"
     inkscape:window-maximized="1"
     inkscape:current-layer="layer1"
     showguides="true">
    <sodipodi:guide
       position="179.77798,258.11386"
       orientation="0,-1"
       id="guide18"
       inkscape:locked="false" />
  </sodipodi:namedview>
  <defs
     id="defs1">
    <rect
       x="319.50276"
       y="152.29631"
       width="188.50663"
       height="186.37661"
       id="rect8" />
    <rect
       x="203.41676"
       y="142.71123"
       width="74.550643"
       height="74.550643"
       id="rect7" />
  </defs>
  <g
     inkscape:label="Katman 1"
     inkscape:groupmode="layer"
     id="layer1">
    <text
       xml:space="preserve"
       transform="scale(0.26458333)"
       id="text7"
       style="fill:#051107;text-orientation:auto;fill-opacity:0.95938098;font-size:64px;text-align:start;writing-mode:lr-tb;direction:ltr;white-space:pre;shape-inside:url(#rect7)" />
    <text
       xml:space="preserve"
       transform="scale(0.26458333)"
       id="text8"
       style="fill:#051107;text-orientation:auto;fill-opacity:0.95938098;font-size:64px;text-align:start;writing-mode:lr-tb;direction:ltr;white-space:pre;shape-inside:url(#rect8)" />
    <path
       d="m 117.72401,104.95031 c 1.8262,2.16235 3.22094,4.81121 4.18421,7.94662 0.98334,3.13541 1.475,6.69246 1.475,10.67118 0,3.97872 -0.5017,7.54659 -1.5051,10.70362 -0.98334,3.1354 -2.36804,5.75184 -4.15411,7.84931 -1.84625,2.18397 -4.03368,3.82735 -6.56225,4.93014 -2.50851,1.1028 -5.37826,1.6542 -8.60921,1.6542 -3.150701,0 -6.020437,-0.56221 -8.609212,-1.68663 -2.56872,-1.1244 -4.756137,-2.75699 -6.562264,-4.89771 -1.806127,-2.14073 -3.200855,-4.76798 -4.184196,-7.88175 -0.963268,-3.11379 -1.444909,-6.67084 -1.444909,-10.67118 0,-3.93547 0.481641,-7.46009 1.444909,-10.57388 0.963269,-3.13541 2.368032,-5.81671 4.214293,-8.04392 1.765994,-2.1191 3.953423,-3.74087 6.562264,-4.86528 2.628919,-1.124425 5.48863,-1.686634 8.579115,-1.686634 3.21088,0 6.09067,0.573026 8.63931,1.719064 2.56872,1.12443 4.74611,2.73538 6.53215,4.83285 z m -0.54182,18.6178 c 0,-6.27081 -11.90528,3.26656 -14.51414,-0.12828 -2.60885,-3.41651 4.42992,-19.49498 -0.0854,-19.49498 -4.555463,0 2.8052,16.44694 0.19636,19.86345 -2.58878,3.39488 -14.825997,-6.51095 -14.825997,-0.24015 0,6.33567 11.925351,-2.44314 14.574337,0.93012 2.64898,3.35164 -4.399825,18.66074 0.0554,18.66074 4.45511,0 -3.287651,-16.78298 -0.65874,-20.1346 2.64898,-3.37327 15.25828,6.87941 15.25828,0.54374 z"
       id="text18"
       style="font-size:50.8px;fill:#0b0b0b;fill-opacity:0.959381;stroke-width:0.3333"
       aria-label="O"
       sodipodi:nodetypes="ccscccscscscccsccscscscscss" />
  </g>
</svg>
