<?xml version="1.0" encoding="UTF-8" standalone="no"?>
<!-- Created with Inkscape (http://www.inkscape.org/) -->

<svg
   width="210mm"
   height="297mm"
   viewBox="0 0 210 297"
   version="1.1"
   id="svg1"
   inkscape:version="1.4 (86a8ad7, 2024-10-11)"
   sodipodi:docname="letterC.svg"
   xmlns:inkscape="http://www.inkscape.org/namespaces/inkscape"
   xmlns:sodipodi="http://sodipodi.sourceforge.net/DTD/sodipodi-0.dtd"
   xmlns="http://www.w3.org/2000/svg"
   xmlns:svg="http://www.w3.org/2000/svg">
  <sodipodi:namedview
     id="namedview1"
     pagecolor="#ffffff"
     bordercolor="#000000"
     borderopacity="0.25"
     inkscape:showpageshadow="2"
     inkscape:pageopacity="0.0"
     inkscape:pagecheckerboard="0"
     inkscape:deskcolor="#d1d1d1"
     inkscape:document-units="mm"
     inkscape:zoom="1.8779181"
     inkscape:cx="478.98788"
     inkscape:cy="304.06012"
     inkscape:window-width="2560"
     inkscape:window-height="1316"
     inkscape:window-x="-12"
     inkscape:window-y="-12"
     inkscape:window-maximized="1"
     inkscape:current-layer="layer1" />
  <defs
     id="defs1" />
  <g
     inkscape:label="Katman 1"
     inkscape:groupmode="layer"
     id="layer1">
    <path
       d="m 118.16232,102.5673 c 2.75362,-1.53589 0.90447,3.0865 -3.30222,7.06982 -2.83127,2.68094 -8.59759,5.43124 -9.46334,5.24729 -0.72761,0.34727 5.49876,-0.83874 -0.12996,0.0347 -1.00872,0.31419 -3.16508,-0.12568 -4.35571,0.0893 -1.17409,0.23151 -2.472203,0.34727 -3.894338,0.34727 -2.678906,0 -5.118033,-0.37207 -7.317382,-1.11622 -2.182813,-0.76067 -4.084505,-1.94303 -5.705078,-3.54707 -1.5875,-1.57096 -2.827735,-3.5636 -3.720704,-5.97793 -0.892969,-2.43085 -1.339453,-5.250318 -1.339453,-8.458394 0,-3.042708 0.429948,-5.762955 1.289844,-8.160742 0.859896,-2.397786 2.10013,-4.423502 3.720703,-6.077148 1.570963,-1.604037 3.464388,-2.827735 5.680274,-3.671094 2.232421,-0.843359 4.704622,-1.265039 7.416601,-1.265039 1.984375,0 3.960483,0.239779 5.928323,0.719336 1.98437,0.479557 4.18372,1.322917 6.59804,2.530078 v 5.829102 h -0.37207 c -2.03398,-1.703255 -4.05143,-2.94349 -6.05234,-3.720703 -2.00091,-0.777214 -4.142385,-1.165821 -6.424414,-1.165821 -1.86862,0 -3.555339,0.305925 -5.060156,0.917774 -1.488281,0.595312 -2.819466,1.529622 -3.993555,2.802929 -1.141015,1.240235 -5.769943,12.425066 -6.414865,14.326759 -0.628385,1.885153 29.84172,-14.213325 29.84172,-11.732856 0,2.596223 -29.889091,18.228279 -29.19456,20.096899 0.711067,1.86862 32.00637,-16.037012 33.11432,-14.862922 1.15755,1.2237 -30.919113,18.621242 -29.381222,19.216552 1.554427,0.57877 28.048122,-16.118 29.767912,-16.118 2.36471,0 -23.517898,19.87295 -21.347134,19.40706 2.615001,-0.56122 38.445384,-29.645765 15.521334,-7.80784 l -0.005,-0.0704 c -16.284451,14.70572 3.99384,2.14309 8.5944,-4.88265 z"
       id="text2"
       style="font-size:50.8px;fill:#0b0b0b;fill-opacity:0.959381;stroke-width:0.264583"
       aria-label="C"
       sodipodi:nodetypes="cscccscccssccsccccsscccscccsscccc" />
  </g>
</svg>
