<?xml version="1.0" encoding="UTF-8" standalone="no"?>
<!-- Created with Inkscape (http://www.inkscape.org/) -->

<svg
   width="210mm"
   height="297mm"
   viewBox="0 0 210 297"
   version="1.1"
   id="svg1"
   sodipodi:docname="letterU.svg"
   inkscape:version="1.4 (86a8ad7, 2024-10-11)"
   xmlns:inkscape="http://www.inkscape.org/namespaces/inkscape"
   xmlns:sodipodi="http://sodipodi.sourceforge.net/DTD/sodipodi-0.dtd"
   xmlns="http://www.w3.org/2000/svg"
   xmlns:svg="http://www.w3.org/2000/svg">
  <sodipodi:namedview
     id="namedview1"
     pagecolor="#ffffff"
     bordercolor="#000000"
     borderopacity="0.25"
     inkscape:showpageshadow="2"
     inkscape:pageopacity="0.0"
     inkscape:pagecheckerboard="0"
     inkscape:deskcolor="#d1d1d1"
     inkscape:document-units="mm"
     inkscape:zoom="1.8779181"
     inkscape:cx="478.98788"
     inkscape:cy="227.91197"
     inkscape:window-width="2560"
     inkscape:window-height="1316"
     inkscape:window-x="-12"
     inkscape:window-y="-12"
     inkscape:window-maximized="1"
     inkscape:current-layer="layer1" />
  <defs
     id="defs1" />
  <g
     inkscape:label="Katman 1"
     inkscape:groupmode="layer"
     id="layer1">
    <path
       d="m 93.77316,79.705219 c 0,2.678906 -0.297656,5.018815 -0.892969,7.019726 -0.578776,1.984375 -1.53789,3.638021 -2.877343,4.960938 -1.273307,1.256771 -2.761589,2.174544 -4.464844,2.75332 -1.703255,0.578776 -3.68763,0.868164 -5.953125,0.868164 -2.315104,0 -4.332552,-0.305924 -6.052344,-0.917773 -1.719791,-0.611849 -3.166731,-1.513086 -4.34082,-2.703711 -1.339453,-1.35599 -2.306836,-2.993099 -2.902148,-4.911328 -0.578776,-1.918229 -0.868164,-4.274675 -0.868164,-7.069336 V 57.604242 L 55.67998,98.744659 70.332731,79.953266 c 1.230387,-1.577908 0.132292,3.580143 0.396875,4.737695 0.281119,1.157552 0.74414,2.207617 1.389062,3.150195 0.727604,1.07487 1.711523,1.885156 2.951758,2.430859 1.256771,0.545703 2.761588,0.818555 4.514453,0.818555 1.769401,0 3.274219,-0.264583 4.514453,-0.79375 1.240235,-0.545703 2.232422,-1.364258 2.976563,-2.455664 0.644921,-0.942578 1.099674,-2.017448 1.364257,-3.224609 0.28112,-1.223698 0.42168,-2.736784 0.42168,-4.539258 L 101.40121,98.0402 93.77316,57.604242 Z"
       id="text46"
       style="font-size:50.8px;fill:#0b0b0b;fill-opacity:0.959381;stroke-width:0.264583"
       aria-label="U"
       sodipodi:nodetypes="sccsssccsccscccscccsccs" />
  </g>
</svg>
